<?xml version="1.0" encoding="UTF-8" standalone="no"?>
<svg width="198px" height="244px" viewBox="0 0 198 244" version="1.1" xmlns="http://www.w3.org/2000/svg" xmlns:xlink="http://www.w3.org/1999/xlink" xmlns:sketch="http://www.bohemiancoding.com/sketch/ns">
    <!-- Generator: Sketch 3.1.1 (8761) - http://www.bohemiancoding.com/sketch -->
    <title>landmarks_circles-fr</title>
    <desc>Created with Sketch.</desc>
    <defs>
        <ellipse id="path-1" cx="94.905" cy="94.905" rx="94.905" ry="94.905"></ellipse>
        <ellipse id="path-3" cx="94.905" cy="94.905" rx="94.905" ry="94.905"></ellipse>
        <ellipse id="path-5" cx="94.905" cy="94.905" rx="94.905" ry="94.905"></ellipse>
        <ellipse id="path-7" cx="94.905" cy="94.905" rx="94.905" ry="94.905"></ellipse>
        <ellipse id="path-9" cx="94.905" cy="94.905" rx="94.905" ry="94.905"></ellipse>
        <ellipse id="path-11" cx="94.905" cy="94.905" rx="94.905" ry="94.905"></ellipse>
        <ellipse id="path-13" cx="94.905" cy="94.905" rx="94.905" ry="94.905"></ellipse>
        <ellipse id="path-15" cx="94.905" cy="94.905" rx="94.905" ry="94.905"></ellipse>
        <ellipse id="path-17" cx="94.905" cy="94.905" rx="94.905" ry="94.905"></ellipse>
        <ellipse id="path-19" cx="94.905" cy="94.905" rx="94.905" ry="94.905"></ellipse>
        <ellipse id="path-21" cx="94.905" cy="94.905" rx="94.905" ry="94.905"></ellipse>
        <ellipse id="path-23" cx="94.905" cy="94.905" rx="94.905" ry="94.905"></ellipse>
        <ellipse id="path-25" cx="94.905" cy="94.905" rx="94.905" ry="94.905"></ellipse>
        <ellipse id="path-27" cx="94.905" cy="94.905" rx="94.905" ry="94.905"></ellipse>
        <ellipse id="path-29" cx="94.905" cy="94.905" rx="94.905" ry="94.905"></ellipse>
        <ellipse id="path-31" cx="94.905" cy="94.905" rx="94.905" ry="94.905"></ellipse>
        <ellipse id="path-33" cx="94.905" cy="94.905" rx="94.905" ry="94.905"></ellipse>
        <ellipse id="path-35" cx="94.905" cy="94.905" rx="94.905" ry="94.905"></ellipse>
        <ellipse id="path-37" cx="94.905" cy="94.905" rx="94.905" ry="94.905"></ellipse>
        <ellipse id="path-39" cx="94.905" cy="94.905" rx="94.905" ry="94.905"></ellipse>
        <ellipse id="path-41" cx="94.905" cy="94.905" rx="94.905" ry="94.905"></ellipse>
    </defs>
    <g id="Icons" stroke="none" stroke-width="1" fill="none" fill-rule="evenodd" sketch:type="MSPage">
        <g id="landmarks_circles-fr" sketch:type="MSLayerGroup" transform="translate(-57.000000, -30.500000)">
            <g id="Layer_1" transform="translate(58.000000, 31.000000)">
                <g id="Group" transform="translate(0.000000, 52.000000)">
                    <g id="XMLID_7_-link" fill="#FFFFFF" sketch:type="MSShapeGroup">
                        <ellipse id="XMLID_7_" cx="94.905" cy="94.905" rx="94.905" ry="94.905"></ellipse>
                    </g>
                    <g id="Clipped">
                        <mask id="mask-2" sketch:name="XMLID_7_" fill="white">
                            <use xlink:href="#path-1"></use>
                        </mask>
                        <g id="XMLID_7_"></g>
                        <rect id="Rectangle-path" fill="#B2DCF7" sketch:type="MSShapeGroup" mask="url(#mask-2)" x="12" y="168" width="166.021" height="23.75"></rect>
                    </g>
                    <g id="Clipped">
                        <mask id="mask-4" sketch:name="XMLID_7_" fill="white">
                            <use xlink:href="#path-3"></use>
                        </mask>
                        <g id="XMLID_7_"></g>
                        <rect id="Rectangle-path" fill="#B2DCF7" sketch:type="MSShapeGroup" mask="url(#mask-4)" x="9" y="130" width="11.379" height="19.109"></rect>
                    </g>
                    <g id="Clipped">
                        <mask id="mask-6" sketch:name="XMLID_7_" fill="white">
                            <use xlink:href="#path-5"></use>
                        </mask>
                        <g id="XMLID_7_"></g>
                        <rect id="Rectangle-path" fill="#DFF2FE" sketch:type="MSShapeGroup" mask="url(#mask-6)" x="23" y="120" width="11.379" height="39.548"></rect>
                    </g>
                    <g id="Clipped">
                        <mask id="mask-8" sketch:name="XMLID_7_" fill="white">
                            <use xlink:href="#path-7"></use>
                        </mask>
                        <g id="XMLID_7_"></g>
                        <rect id="Rectangle-path" fill="#DFF2FE" sketch:type="MSShapeGroup" mask="url(#mask-8)" x="135" y="139" width="11.379" height="39.548"></rect>
                    </g>
                    <g id="Clipped">
                        <mask id="mask-10" sketch:name="XMLID_7_" fill="white">
                            <use xlink:href="#path-9"></use>
                        </mask>
                        <g id="XMLID_7_"></g>
                        <path d="M58.817,149.386 C58.817,149.386 55.336,145.878 55.059,145.416 C54.782,144.954 53.674,144.031 53.213,143.939 C52.751,144.031 51.644,144.955 51.367,145.416 C51.09,145.878 47.609,149.386 47.609,149.386 L47.524,149.386 L47.524,175.845 L58.903,175.845 L58.903,149.386 L58.817,149.386 L58.817,149.386 Z" id="Shape" fill="#B2DCF7" sketch:type="MSShapeGroup" mask="url(#mask-10)"></path>
                    </g>
                    <g id="Clipped">
                        <mask id="mask-12" sketch:name="XMLID_7_" fill="white">
                            <use xlink:href="#path-11"></use>
                        </mask>
                        <g id="XMLID_7_"></g>
                        <path d="M48.173,142.27 C48.173,142.27 44.692,138.762 44.415,138.3 C44.138,137.838 43.03,136.915 42.569,136.823 C42.107,136.915 41,137.839 40.723,138.3 C40.446,138.762 36.965,142.27 36.965,142.27 L36.88,142.27 L36.88,168.729 L48.259,168.729 L48.259,142.27 L48.173,142.27 L48.173,142.27 Z" id="Shape" fill="#B2DCF7" sketch:type="MSShapeGroup" mask="url(#mask-12)"></path>
                    </g>
                    <g id="Clipped">
                        <mask id="mask-14" sketch:name="XMLID_7_" fill="white">
                            <use xlink:href="#path-13"></use>
                        </mask>
                        <g id="XMLID_7_"></g>
                        <path d="M81.87,164.075 C81.048,163.371 79.137,161.723 78.947,161.455 C78.704,161.113 77.731,160.429 77.325,160.36 C76.92,160.428 75.947,161.113 75.703,161.455 C75.513,161.723 73.602,163.37 72.78,164.075 L72.328,164.075 L72.328,178.238 L82.322,178.238 L82.322,164.075 L81.87,164.075 L81.87,164.075 Z" id="Shape" fill="#B2DCF7" sketch:type="MSShapeGroup" mask="url(#mask-14)"></path>
                    </g>
                    <g id="Clipped">
                        <mask id="mask-16" sketch:name="XMLID_7_" fill="white">
                            <use xlink:href="#path-15"></use>
                        </mask>
                        <g id="XMLID_7_"></g>
                        <path d="M89.995,160.45 C89.173,159.746 87.262,158.098 87.072,157.83 C86.829,157.488 85.856,156.804 85.45,156.735 C85.045,156.803 84.072,157.488 83.828,157.83 C83.638,158.098 81.727,159.745 80.905,160.45 L80.453,160.45 L80.453,174.613 L90.447,174.613 L90.447,160.45 L89.995,160.45 L89.995,160.45 Z" id="Shape" fill="#B2DCF7" sketch:type="MSShapeGroup" mask="url(#mask-16)"></path>
                    </g>
                    <g id="Clipped">
                        <mask id="mask-18" sketch:name="XMLID_7_" fill="white">
                            <use xlink:href="#path-17"></use>
                        </mask>
                        <g id="XMLID_7_"></g>
                        <path d="M105.745,162.291 C104.923,161.587 103.012,159.939 102.822,159.671 C102.579,159.329 101.606,158.645 101.2,158.576 C100.795,158.644 99.822,159.329 99.578,159.671 C99.388,159.939 97.477,161.586 96.655,162.291 L96.203,162.291 L96.203,176.454 L106.197,176.454 L106.197,162.291 L105.745,162.291 L105.745,162.291 Z" id="Shape" fill="#B2DCF7" sketch:type="MSShapeGroup" mask="url(#mask-18)"></path>
                    </g>
                    <g id="Clipped">
                        <mask id="mask-20" sketch:name="XMLID_7_" fill="white">
                            <use xlink:href="#path-19"></use>
                        </mask>
                        <g id="XMLID_7_"></g>
                        <path d="M162.899,154.589 L163.944,154.589 L163.944,152.886 L152.882,152.886 L152.882,152.919 L141.82,152.919 L141.82,154.622 L142.865,154.622 L142.865,160.993 L142.865,161.594 L142.123,161.594 L142.123,163.297 L142.865,163.297 L142.865,166.033 L142.123,166.033 L142.123,167.736 L142.865,167.736 L142.865,169.483 L142.123,169.483 L142.123,171.186 L149.526,171.186 L149.526,169.483 L149.165,169.483 L149.165,167.736 L149.526,167.736 L149.526,166.033 L149.165,166.033 L149.165,163.297 L149.526,163.297 L149.526,161.594 L149.165,161.594 L149.165,160.993 C149.165,160.993 149.578,158.257 152.881,158.257 L152.881,158.224 C156.184,158.224 156.597,160.96 156.597,160.96 L156.597,161.561 L156.236,161.561 L156.236,163.264 L156.597,163.264 L156.597,166 L156.236,166 L156.236,167.703 L156.597,167.703 L156.597,170.302 L162.897,170.302 L162.897,167.703 L163.639,167.703 L163.639,166 L162.897,166 L162.897,163.264 L163.639,163.264 L163.639,161.561 L162.897,161.561 L162.897,160.96 L162.897,154.589 L162.899,154.589 Z" id="Shape" fill="#B2DCF7" sketch:type="MSShapeGroup" mask="url(#mask-20)"></path>
                    </g>
                    <g id="Clipped">
                        <mask id="mask-22" sketch:name="XMLID_7_" fill="white">
                            <use xlink:href="#path-21"></use>
                        </mask>
                        <g id="XMLID_7_"></g>
                        <path d="M129.144,144.87 C129.408,143.247 130.012,141.525 130.491,141.114 C131.268,140.448 130.491,139.036 130.491,139.036 L126.263,139.036 C114.283,113.958 103.656,80.618 101.741,39.322 C101.741,39.322 99.335,-5.76 99.335,-6.871 C99.335,-7.982 102.222,-6.427 102.555,-11.646 C102.888,-16.865 102.444,-27.414 98.891,-29.301 C95.338,-31.189 96.226,-52.619 96.226,-52.619 L95.624,-52.619 L94.782,-52.619 L94.18,-52.619 C94.18,-52.619 95.068,-31.188 91.515,-29.301 C87.962,-27.413 87.518,-16.865 87.851,-11.646 C88.184,-6.427 91.071,-7.982 91.071,-6.871 C91.071,-5.76 88.665,39.322 88.665,39.322 C86.75,80.618 76.123,113.958 64.143,139.036 L59.928,139.036 C59.928,139.036 59.151,140.448 59.928,141.114 C60.406,141.523 61.006,143.233 61.272,144.851 C44.331,177.988 25.891,195 25.891,195 L53.651,195 C58.705,156.592 89.325,154.801 94.782,154.789 L94.782,154.803 C94.782,154.803 94.929,154.795 95.203,154.791 C95.477,154.795 95.624,154.803 95.624,154.803 L95.624,154.789 C101.081,154.801 131.702,156.592 136.756,195 L164.516,195 C164.515,195.001 146.082,177.996 129.144,144.87 L129.144,144.87 Z M92.737,39.323 L94.782,39.323 L95.624,39.323 L97.669,39.323 C97.669,39.323 98.557,69.082 102.999,81.296 L95.624,81.296 L94.782,81.296 L87.407,81.296 C91.849,69.081 92.737,39.323 92.737,39.323 L92.737,39.323 Z M95.624,139.037 L94.782,139.037 L74.317,139.037 L74.304,139.037 C76.969,132.153 84.298,101.728 84.298,101.728 L94.782,101.728 L95.624,101.728 L106.108,101.728 C106.108,101.728 113.437,132.153 116.102,139.037 L95.624,139.037 L95.624,139.037 Z" id="Shape" fill="#2D96DD" sketch:type="MSShapeGroup" mask="url(#mask-22)"></path>
                    </g>
                    <g id="Clipped">
                        <mask id="mask-24" sketch:name="XMLID_7_" fill="white">
                            <use xlink:href="#path-23"></use>
                        </mask>
                        <g id="XMLID_7_"></g>
                        <rect id="Rectangle-path" fill="#2483C6" sketch:type="MSShapeGroup" mask="url(#mask-24)" x="114" y="173" width="12.423" height="29.048"></rect>
                    </g>
                    <g id="Clipped">
                        <mask id="mask-26" sketch:name="XMLID_7_" fill="white">
                            <use xlink:href="#path-25"></use>
                        </mask>
                        <g id="XMLID_7_"></g>
                        <rect id="Rectangle-path" fill="#2483C6" sketch:type="MSShapeGroup" mask="url(#mask-26)" x="74" y="174" width="12.423" height="29.048"></rect>
                    </g>
                    <g id="Clipped">
                        <mask id="mask-28" sketch:name="XMLID_7_" fill="white">
                            <use xlink:href="#path-27"></use>
                        </mask>
                        <g id="XMLID_7_"></g>
                        <rect id="Rectangle-path" fill="#2483C6" sketch:type="MSShapeGroup" mask="url(#mask-28)" x="45" y="168" width="17.296" height="40.22"></rect>
                    </g>
                    <g id="Clipped">
                        <mask id="mask-30" sketch:name="XMLID_7_" fill="white">
                            <use xlink:href="#path-29"></use>
                        </mask>
                        <g id="XMLID_7_"></g>
                        <g id="Group" mask="url(#mask-30)" fill="#2483C6" sketch:type="MSShapeGroup">
                            <g transform="translate(15.000000, 139.000000)" id="Shape">
                                <path d="M17.764,37.781 C17.907,40.48 17.715,43.738 17.057,47.627 C17.887,47.805 20.741,47.818 21.741,47.559 C20.75,44.333 20.827,40.886 22.139,37.764 C22.862,36.045 24.739,32.538 26.498,31.035 C25.377,30.766 24.331,30.009 23.393,29.52 C22.629,31.006 21.569,32.734 20.701,33.476 C20.274,31.921 19.639,30.438 18.953,29.09 C18.055,29.741 17.074,30.281 16.024,30.693 C17.03,32.964 17.638,35.387 17.764,37.781 L17.764,37.781 Z"></path>
                                <path d="M39.712,18.05 C38.43,12.76 33.105,9.508 27.813,10.79 C26.027,11.222 24.481,12.124 23.255,13.324 C25.106,17.468 24.673,22.324 22.111,26.086 C24.379,29.266 28.423,30.923 32.45,29.949 C37.742,28.668 40.992,23.341 39.712,18.05 L39.712,18.05 Z"></path>
                                <path d="M0.474,14.534 C-1.819,20.487 1.148,27.175 7.102,29.467 C13.055,31.761 19.743,28.792 22.037,22.837 C24.33,16.886 21.361,10.198 15.406,7.905 C9.454,5.611 2.767,8.579 0.474,14.534 L0.474,14.534 Z"></path>
                                <path d="M22.57,11.993 C25.097,9.643 28.857,8.82 31.817,9.293 C31.846,5.022 28.783,1.237 24.434,0.507 C20.148,-0.212 16.082,2.285 14.656,6.23 C17.516,6.881 20.925,8.938 22.57,11.993 L22.57,11.993 Z"></path>
                            </g>
                        </g>
                    </g>
                    <g id="Clipped">
                        <mask id="mask-32" sketch:name="XMLID_7_" fill="white">
                            <use xlink:href="#path-31"></use>
                        </mask>
                        <g id="XMLID_7_"></g>
                        <g id="Group" mask="url(#mask-32)" fill="#2483C6" sketch:type="MSShapeGroup">
                            <g transform="translate(95.000000, 166.000000)">
                                <path d="M9.913,21.113 C9.995,22.657 9.885,24.521 9.508,26.747 C9.983,26.849 11.616,26.856 12.188,26.708 C11.621,24.862 11.665,22.89 12.416,21.103 C12.83,20.12 13.904,18.112 14.91,17.253 C14.268,17.099 13.67,16.666 13.133,16.386 C12.696,17.236 12.089,18.225 11.593,18.65 C11.349,17.76 10.985,16.912 10.593,16.141 C10.079,16.514 9.518,16.823 8.917,17.058 C9.493,18.357 9.841,19.743 9.913,21.113 L9.913,21.113 Z" id="Shape"></path>
                                <path d="M22.472,9.823 C21.738,6.796 18.691,4.935 15.664,5.669 C14.642,5.916 13.757,6.432 13.056,7.119 C14.115,9.49 13.867,12.269 12.401,14.421 C13.698,16.24 16.012,17.189 18.317,16.631 C21.345,15.898 23.204,12.85 22.472,9.823 L22.472,9.823 Z" id="Shape"></path>
                                <ellipse id="Oval" cx="6.611" cy="10.611" rx="6.611" ry="6.611"></ellipse>
                                <path d="M12.663,6.357 C14.109,5.012 16.26,4.541 17.954,4.812 C17.97,2.368 16.218,0.202 13.729,-0.215 C11.276,-0.626 8.95,0.803 8.134,3.06 C9.771,3.432 11.722,4.609 12.663,6.357 L12.663,6.357 Z" id="Shape"></path>
                            </g>
                        </g>
                    </g>
                    <g id="Clipped">
                        <mask id="mask-34" sketch:name="XMLID_7_" fill="white">
                            <use xlink:href="#path-33"></use>
                        </mask>
                        <g id="XMLID_7_"></g>
                        <g id="Group" mask="url(#mask-34)" fill="#2483C6" sketch:type="MSShapeGroup">
                            <g transform="translate(155.000000, 131.000000)">
                                <path d="M16.985,29.219 C16.875,31.304 17.023,33.821 17.531,36.826 C16.89,36.964 14.685,36.973 13.912,36.774 C14.677,34.282 14.618,31.619 13.604,29.207 C13.045,27.879 11.595,25.169 10.236,24.008 C11.102,23.8 11.91,23.215 12.635,22.838 C13.225,23.986 14.044,25.321 14.715,25.895 C15.045,24.694 15.536,23.548 16.065,22.507 C16.759,23.01 17.517,23.427 18.328,23.745 C17.552,25.497 17.083,27.369 16.985,29.219 L16.985,29.219 Z" id="Shape"></path>
                                <path d="M0.028,13.975 C1.019,9.888 5.133,7.375 9.221,8.366 C10.601,8.7 11.795,9.397 12.742,10.323 C11.312,13.525 11.647,17.276 13.626,20.183 C11.874,22.64 8.75,23.92 5.638,23.167 C1.55,22.178 -0.961,18.063 0.028,13.975 L0.028,13.975 Z" id="Shape"></path>
                                <ellipse id="Oval" cx="21.926" cy="14.926" rx="8.926" ry="8.926"></ellipse>
                                <path d="M13.272,9.295 C11.32,7.479 8.415,6.843 6.128,7.209 C6.106,3.909 8.472,0.985 11.832,0.421 C15.144,-0.134 18.285,1.795 19.387,4.843 C17.176,5.346 14.543,6.935 13.272,9.295 L13.272,9.295 Z" id="Shape"></path>
                            </g>
                        </g>
                    </g>
                    <g id="Clipped">
                        <mask id="mask-36" sketch:name="XMLID_7_" fill="white">
                            <use xlink:href="#path-35"></use>
                        </mask>
                        <g id="XMLID_7_"></g>
                        <path d="M138.366,154.401 C138.366,154.401 133.075,149.069 132.654,148.367 C132.233,147.665 130.549,146.262 129.847,146.122 C129.145,146.262 127.461,147.666 127.04,148.367 C126.619,149.069 121.328,154.401 121.328,154.401 L121.198,154.401 L121.198,194.621 L138.494,194.621 L138.494,154.401 L138.366,154.401 L138.366,154.401 Z" id="Shape" fill="#2483C6" sketch:type="MSShapeGroup" mask="url(#mask-36)"></path>
                    </g>
                    <g id="Clipped">
                        <mask id="mask-38" sketch:name="XMLID_7_" fill="white">
                            <use xlink:href="#path-37"></use>
                        </mask>
                        <g id="XMLID_7_"></g>
                        <path d="M75.145,160.304 C75.145,160.304 69.854,154.972 69.433,154.27 C69.012,153.568 67.328,152.165 66.626,152.025 C65.924,152.165 64.24,153.569 63.819,154.27 C63.398,154.972 58.107,160.304 58.107,160.304 L57.977,160.304 L57.977,200.524 L75.273,200.524 L75.273,160.304 L75.145,160.304 L75.145,160.304 Z" id="Shape" fill="#2483C6" sketch:type="MSShapeGroup" mask="url(#mask-38)"></path>
                    </g>
                    <g id="Clipped">
                        <mask id="mask-40" sketch:name="XMLID_7_" fill="white">
                            <use xlink:href="#path-39"></use>
                        </mask>
                        <g id="XMLID_7_"></g>
                        <path d="M151,166.749 C149.75,165.48 146.846,162.512 146.556,162.03 C146.186,161.414 144.707,160.181 144.091,160.058 C143.475,160.181 141.996,161.414 141.626,162.03 C141.337,162.513 138.433,165.48 137.183,166.749 L136.496,166.749 L136.496,192.262 L151.687,192.262 L151.687,166.749 L151,166.749 L151,166.749 Z" id="Shape" fill="#2483C6" sketch:type="MSShapeGroup" mask="url(#mask-40)"></path>
                    </g>
                    <g id="Clipped">
                        <mask id="mask-42" sketch:name="XMLID_7_" fill="white">
                            <use xlink:href="#path-41"></use>
                        </mask>
                        <g id="XMLID_7_"></g>
                        <path d="M51.342,69.679 C50.498,69.679 49.704,69.876 49.007,70.22 C48.575,68.996 47.611,68 46.37,67.463 C46.837,66.757 47.111,65.929 47.111,65.039 C47.111,62.476 44.877,60.398 42.121,60.398 C40.122,60.398 38.402,61.494 37.606,63.073 C35.988,63.215 34.599,64.076 33.803,65.308 C33.282,65.137 32.725,65.039 32.141,65.039 C29.385,65.039 27.151,67.117 27.151,69.68 C27.151,69.709 27.155,69.737 27.156,69.765 C24.851,70.175 23.109,72.057 23.109,74.32 C23.109,76.883 25.343,78.961 28.099,78.961 L51.343,78.961 C54.099,78.961 56.333,76.883 56.333,74.32 C56.332,71.756 54.098,69.679 51.342,69.679 L51.342,69.679 Z" id="Shape" opacity="0.6" fill="#6CB8E7" sketch:type="MSShapeGroup" mask="url(#mask-42)"></path>
                    </g>
                    <g id="XMLID_7_-link" stroke="#2D96DD" stroke-width="2" sketch:type="MSShapeGroup">
                        <ellipse id="XMLID_7_" cx="94.905" cy="94.905" rx="94.905" ry="94.905"></ellipse>
                    </g>
                </g>
                <circle id="Oval" fill="#2483C6" sketch:type="MSShapeGroup" cx="177.122" cy="198.122" r="9.122"></circle>
                <path d="M36.698,206.338 C39.038,212.414 36.01,219.24 29.933,221.58 C23.857,223.921 17.031,220.891 14.69,214.813 C12.35,208.739 15.379,201.913 21.458,199.572 C27.532,197.231 34.357,200.26 36.698,206.338 L36.698,206.338 Z" id="Shape" fill="#2483C6" sketch:type="MSShapeGroup"></path>
                <path d="M190.638,108.055 C189.692,108.055 188.801,108.275 188.02,108.661 C187.536,107.289 186.455,106.172 185.063,105.569 C185.586,104.777 185.893,103.849 185.893,102.851 C185.893,99.977 183.388,97.648 180.298,97.648 C178.056,97.648 176.128,98.877 175.235,100.647 C173.421,100.806 171.864,101.772 170.971,103.153 C170.387,102.961 169.762,102.851 169.108,102.851 C166.018,102.851 163.513,105.18 163.513,108.054 C163.513,108.086 163.518,108.118 163.518,108.15 C160.934,108.61 158.98,110.72 158.98,113.257 C158.98,116.131 161.485,118.46 164.575,118.46 L190.636,118.46 C193.726,118.46 196.231,116.13 196.231,113.257 C196.231,110.384 193.727,108.055 190.638,108.055 L190.638,108.055 Z" id="Shape" fill="#2483C6" sketch:type="MSShapeGroup"></path>
                <path d="M126.506,134.863 C127.194,134.863 127.841,135.023 128.409,135.304 C128.761,134.307 129.546,133.495 130.558,133.057 C130.178,132.482 129.954,131.807 129.954,131.082 C129.954,128.993 131.775,127.3 134.02,127.3 C135.649,127.3 137.051,128.193 137.7,129.48 C139.018,129.595 140.15,130.297 140.799,131.301 C141.223,131.161 141.678,131.082 142.153,131.082 C144.399,131.082 146.219,132.775 146.219,134.864 C146.219,134.887 146.216,134.91 146.215,134.934 C148.093,135.268 149.513,136.802 149.513,138.646 C149.513,140.735 147.692,142.428 145.447,142.428 L126.505,142.428 C124.259,142.428 122.439,140.735 122.439,138.646 C122.439,136.557 124.26,134.863 126.506,134.863 L126.506,134.863 Z" id="Shape" opacity="0.6" fill="#6CB8E7" sketch:type="MSShapeGroup"></path>
                <path d="M91.071,46.193 C91.071,46.452 90.88,49.203 90.679,53.125 L99.726,53.125 C99.525,49.203 99.334,46.452 99.334,46.193 C99.334,45.083 102.221,46.637 102.554,41.418 C102.887,36.199 102.443,25.65 98.89,23.763 C95.337,21.876 96.225,0.445 96.225,0.445 L95.623,0.445 L94.781,0.445 L94.179,0.445 C94.179,0.445 95.067,21.876 91.514,23.763 C87.961,25.65 87.517,36.199 87.85,41.418 C88.183,46.637 91.071,45.082 91.071,46.193 L91.071,46.193 Z" id="Shape" fill="#2D96DD" sketch:type="MSShapeGroup"></path>
            </g>
            <g id="Yellow"></g>
            <g id="Blue"></g>
            <g id="Red"></g>
        </g>
    </g>
</svg>