<?xml version="1.0" encoding="UTF-8" standalone="no"?>
<svg width="192px" height="228px" viewBox="0 0 192 228" version="1.1" xmlns="http://www.w3.org/2000/svg" xmlns:xlink="http://www.w3.org/1999/xlink" xmlns:sketch="http://www.bohemiancoding.com/sketch/ns">
    <!-- Generator: Sketch 3.1.1 (8761) - http://www.bohemiancoding.com/sketch -->
    <title>landmarks_circles-enc</title>
    <desc>Created with Sketch.</desc>
    <defs>
        <circle id="path-1" cx="94.905" cy="94.905" r="94.905"></circle>
        <circle id="path-3" cx="94.905" cy="94.905" r="94.905"></circle>
        <circle id="path-5" cx="94.905" cy="94.905" r="94.905"></circle>
        <circle id="path-7" cx="94.905" cy="94.905" r="94.905"></circle>
        <circle id="path-9" cx="94.905" cy="94.905" r="94.905"></circle>
        <circle id="path-11" cx="94.905" cy="94.905" r="94.905"></circle>
        <circle id="path-13" cx="94.905" cy="94.905" r="94.905"></circle>
        <circle id="path-15" cx="94.905" cy="94.905" r="94.905"></circle>
        <circle id="path-17" cx="94.905" cy="94.905" r="94.905"></circle>
        <circle id="path-19" cx="94.905" cy="94.905" r="94.905"></circle>
        <circle id="path-21" cx="94.905" cy="94.905" r="94.905"></circle>
        <circle id="path-23" cx="94.905" cy="94.905" r="94.905"></circle>
        <circle id="path-25" cx="94.905" cy="94.905" r="94.905"></circle>
        <circle id="path-27" cx="94.905" cy="94.905" r="94.905"></circle>
        <circle id="path-29" cx="94.905" cy="94.905" r="94.905"></circle>
        <circle id="path-31" cx="94.905" cy="94.905" r="94.905"></circle>
    </defs>
    <g id="Icons" stroke="none" stroke-width="1" fill="none" fill-rule="evenodd" sketch:type="MSPage">
        <g id="landmarks_circles-enc" sketch:type="MSLayerGroup" transform="translate(-54.000000, -44.500000)">
            <g id="Layer_1" transform="translate(55.000000, 45.000000)">
                <g id="Group" transform="translate(0.000000, 36.000000)">
                    <g id="XMLID_4_-link" fill="#FFFFFF" sketch:type="MSShapeGroup">
                        <circle id="XMLID_4_" cx="94.905" cy="94.905" r="94.905"></circle>
                    </g>
                    <g id="Clipped">
                        <mask id="mask-2" sketch:name="XMLID_4_" fill="white">
                            <use xlink:href="#path-1"></use>
                        </mask>
                        <g id="XMLID_4_"></g>
                        <g id="Group" mask="url(#mask-2)" fill="#61BCF9" sketch:type="MSShapeGroup">
                            <g transform="translate(10.000000, 105.000000)">
                                <rect id="Rectangle-path" x="0" y="32" width="31.148" height="25.437"></rect>
                                <path d="M23.734,29.882 L23.734,27.604 L22.944,27.604 L22.944,22.529 L23.734,22.529 L23.734,20.251 L22.077,20.251 L22.077,15.746 C22.077,15.746 21.072,12.086 16.329,11.052 L16.329,9.533 L17.071,9.533 L17.071,8.6 L15.518,8.6 L15.518,6.27 L16.122,6.27 L16.122,5.338 L15.518,5.338 L14.085,5.338 L14.085,2.157 L15.242,2.157 L15.242,1.541 L14.085,1.541 L14.085,0.384 L13.688,0.384 L13.291,0.384 L13.291,1.541 L12.141,1.541 L12.141,2.157 L13.291,2.157 L13.291,5.338 L11.858,5.338 L11.254,5.338 L11.254,6.27 L11.858,6.27 L11.858,8.6 L10.305,8.6 L10.305,9.532 L11.047,9.532 L11.047,11.051 C6.304,12.086 5.299,15.745 5.299,15.745 L5.299,20.25 L3.642,20.25 L3.642,22.528 L4.432,22.528 L4.432,27.603 L3.642,27.603 L3.642,29.881 L1.933,29.881 L1.933,33.35 L13.687,33.35 L25.441,33.35 L25.441,29.881 L23.734,29.881 L23.734,29.882 Z M6.037,27.604 L5.234,27.604 L5.234,22.529 L6.037,22.529 L6.037,27.604 L6.037,27.604 Z M7.811,27.604 L6.84,27.604 L6.84,22.529 L7.811,22.529 L7.811,27.604 L7.811,27.604 Z M10.827,27.604 L8.613,27.604 L8.613,22.529 L9.416,22.529 L9.416,27.578 L10.219,27.578 L10.219,22.529 L10.827,22.529 L10.827,27.604 L10.827,27.604 Z M12.433,27.604 L11.63,27.604 L11.63,22.529 L12.433,22.529 L12.433,27.604 L12.433,27.604 Z M14.141,27.604 L13.688,27.604 L13.235,27.604 L13.235,22.529 L13.688,22.529 L14.141,22.529 L14.141,27.604 L14.141,27.604 Z M15.747,27.604 L14.944,27.604 L14.944,22.529 L15.747,22.529 L15.747,27.604 L15.747,27.604 Z M18.763,27.604 L16.549,27.604 L16.549,22.529 L17.157,22.529 L17.157,27.578 L17.96,27.578 L17.96,22.529 L18.763,22.529 L18.763,27.604 L18.763,27.604 Z M20.536,27.604 L19.565,27.604 L19.565,22.529 L20.536,22.529 L20.536,27.604 L20.536,27.604 Z M22.142,27.604 L21.339,27.604 L21.339,22.529 L22.142,22.529 L22.142,27.604 L22.142,27.604 Z" id="Shape"></path>
                                <path d="M3.595,29.882 L2.522,29.829 C2.522,29.829 2.641,45.239 0.949,57.263 L3.594,57.263 L8.019,33.351 L3.595,29.882 L3.595,29.882 Z" id="Shape"></path>
                            </g>
                        </g>
                    </g>
                    <g id="Clipped">
                        <mask id="mask-4" sketch:name="XMLID_4_" fill="white">
                            <use xlink:href="#path-3"></use>
                        </mask>
                        <g id="XMLID_4_"></g>
                        <rect id="Rectangle-path" fill="#B2DCF7" sketch:type="MSShapeGroup" mask="url(#mask-4)" x="27" y="143" width="17.456" height="38.835"></rect>
                    </g>
                    <g id="Clipped">
                        <mask id="mask-6" sketch:name="XMLID_4_" fill="white">
                            <use xlink:href="#path-5"></use>
                        </mask>
                        <g id="XMLID_4_"></g>
                        <rect id="Rectangle-path" fill="#B2DCF7" sketch:type="MSShapeGroup" mask="url(#mask-6)" x="159" y="142" width="11.379" height="63.026"></rect>
                    </g>
                    <g id="Clipped">
                        <mask id="mask-8" sketch:name="XMLID_4_" fill="white">
                            <use xlink:href="#path-7"></use>
                        </mask>
                        <g id="XMLID_4_"></g>
                        <rect id="Rectangle-path" fill="#B2DCF7" sketch:type="MSShapeGroup" mask="url(#mask-8)" x="173" y="129" width="11.379" height="63.026"></rect>
                    </g>
                    <g id="Clipped">
                        <mask id="mask-10" sketch:name="XMLID_4_" fill="white">
                            <use xlink:href="#path-9"></use>
                        </mask>
                        <g id="XMLID_4_"></g>
                        <g id="Group" mask="url(#mask-10)" fill="#DFF2FE" sketch:type="MSShapeGroup">
                            <g transform="translate(88.000000, 116.000000)">
                                <path d="M2.391,33.617 L67.278,33.617" id="Shape"></path>
                                <path d="M3.225,26.308 L66.444,40.926" id="Shape"></path>
                                <path d="M5.811,19.119 L63.858,48.115" id="Shape"></path>
                                <path d="M9.599,13.227 L60.07,54.007" id="Shape"></path>
                                <path d="M14.465,8.366 L55.205,58.868" id="Shape"></path>
                                <path d="M20.509,4.508 L49.16,62.726" id="Shape"></path>
                                <path d="M26.899,2.159 L42.771,65.075" id="Shape"></path>
                                <path d="M34.835,1.174 L34.835,66.06" id="Shape"></path>
                                <path d="M42.144,2.008 L27.525,65.226" id="Shape"></path>
                                <path d="M49.332,4.593 L20.337,62.641" id="Shape"></path>
                                <path d="M55.224,8.382 L14.445,58.852" id="Shape"></path>
                                <path d="M60.086,13.247 L9.583,53.987" id="Shape"></path>
                                <path d="M63.944,19.292 L5.725,47.942" id="Shape"></path>
                                <path d="M66.292,25.681 L3.377,41.553" id="Shape"></path>
                                <path d="M34.675,1.174 L34.994,66.06" id="Shape"></path>
                                <path d="M34.675,1.174 L34.994,66.06" id="Shape"></path>
                                <circle id="Oval" cx="34.524" cy="33.524" r="4.524"></circle>
                                <path d="M70.371,33.537 C70.371,32.899 69.693,32.35 68.723,32.108 C68.663,30.747 68.522,29.407 68.306,28.092 C68.978,27.807 69.415,27.354 69.415,26.843 C69.415,26.202 68.732,25.652 67.756,25.411 C67.362,23.825 66.855,22.284 66.246,20.795 C66.791,20.51 67.135,20.103 67.135,19.649 C67.135,18.912 66.231,18.296 65.018,18.132 C64.425,16.978 63.773,15.86 63.056,14.788 C63.356,14.538 63.531,14.237 63.531,13.912 C63.531,13.148 62.561,12.513 61.281,12.378 C60.36,11.233 59.365,10.151 58.304,9.135 C58.59,8.889 58.758,8.595 58.758,8.278 C58.758,7.416 57.523,6.717 55.999,6.717 C55.836,6.717 55.678,6.727 55.523,6.742 C54.29,5.792 52.99,4.927 51.631,4.151 C51.561,3.324 50.358,2.665 48.879,2.665 C48.824,2.665 48.771,2.668 48.717,2.67 C44.482,0.769 39.791,-0.297 34.848,-0.297 C29.767,-0.297 24.951,0.828 20.624,2.831 C20.218,2.946 19.869,3.115 19.608,3.323 C17.693,4.288 15.883,5.428 14.197,6.724 C14.126,6.721 14.055,6.718 13.983,6.718 C12.459,6.718 11.224,7.417 11.224,8.279 C11.224,8.539 11.338,8.783 11.536,8.999 C10.43,10.047 9.393,11.166 8.436,12.353 C6.926,12.362 5.706,13.057 5.706,13.914 C5.706,14.341 6.009,14.727 6.499,15.009 C5.841,16.009 5.237,17.047 4.686,18.117 C3.404,18.251 2.432,18.887 2.432,19.651 C2.432,20.134 2.819,20.565 3.427,20.851 C2.831,22.316 2.332,23.831 1.943,25.391 C0.916,25.618 0.188,26.183 0.188,26.844 C0.188,27.377 0.661,27.847 1.381,28.129 C1.163,29.467 1.024,30.83 0.968,32.216 C0.191,32.492 -0.327,32.98 -0.327,33.538 C-0.327,34.095 0.189,34.582 0.964,34.858 C1.019,36.396 1.178,37.907 1.431,39.387 C0.708,39.668 0.233,40.14 0.233,40.674 C0.233,41.34 0.972,41.908 2.011,42.132 C2.412,43.682 2.922,45.187 3.528,46.642 C2.889,46.928 2.477,47.37 2.477,47.867 C2.477,48.652 3.502,49.3 4.834,49.41 C5.387,50.458 5.989,51.476 6.645,52.456 C6.096,52.741 5.75,53.15 5.75,53.605 C5.75,54.467 6.985,55.166 8.509,55.166 C8.558,55.166 8.606,55.163 8.654,55.162 C9.598,56.308 10.62,57.386 11.704,58.398 C11.429,58.641 11.268,58.929 11.268,59.238 C11.268,60.1 12.503,60.799 14.027,60.799 C14.198,60.799 14.365,60.789 14.528,60.772 C16.012,61.884 17.594,62.87 19.252,63.73 C19.56,64.324 20.474,64.77 21.589,64.84 C25.661,66.571 30.141,67.53 34.846,67.53 C39.589,67.53 44.103,66.553 48.203,64.794 C48.433,64.829 48.673,64.85 48.923,64.85 C50.447,64.85 51.682,64.151 51.682,63.289 C51.682,63.214 51.67,63.141 51.652,63.07 C52.891,62.361 54.086,61.583 55.221,60.729 C55.481,60.775 55.757,60.8 56.044,60.8 C57.568,60.8 58.803,60.101 58.803,59.239 C58.803,58.857 58.561,58.508 58.159,58.237 C59.18,57.27 60.147,56.246 61.041,55.16 C62.459,55.095 63.576,54.425 63.576,53.605 C63.576,53.228 63.34,52.882 62.947,52.612 C63.644,51.584 64.279,50.512 64.862,49.407 C66.176,49.288 67.181,48.645 67.181,47.867 C67.181,47.378 66.783,46.942 66.161,46.656 C66.769,45.196 67.281,43.687 67.683,42.132 C68.722,41.908 69.461,41.341 69.461,40.674 C69.461,40.14 68.986,39.669 68.263,39.387 C68.511,37.942 68.669,36.467 68.728,34.965 C69.695,34.722 70.371,34.174 70.371,33.537 L70.371,33.537 Z M66.082,34.836 C66.024,36.335 65.86,37.805 65.598,39.242 C64.624,39.483 63.942,40.032 63.942,40.673 C63.942,41.171 64.355,41.613 64.995,41.899 C64.567,43.46 64.021,44.97 63.368,46.423 C62.367,46.657 61.662,47.215 61.662,47.866 C61.662,48.208 61.859,48.524 62.189,48.781 C61.547,49.935 60.836,51.045 60.058,52.103 C58.904,52.29 58.058,52.89 58.058,53.603 C58.058,53.838 58.153,54.061 58.318,54.261 C57.138,55.601 55.847,56.84 54.457,57.961 C53.966,58.157 53.592,58.441 53.41,58.773 C51.876,59.907 50.235,60.905 48.504,61.746 C47.551,61.829 46.759,62.186 46.39,62.672 C43.571,63.793 40.552,64.514 37.399,64.769 C36.985,64.202 36,63.803 34.849,63.803 C33.698,63.803 32.712,64.202 32.299,64.769 C29.641,64.554 27.077,64.008 24.649,63.17 C24.542,62.363 23.354,61.726 21.901,61.726 C21.675,61.726 21.456,61.743 21.245,61.772 C19.677,61.013 18.187,60.121 16.779,59.121 C16.7,58.504 15.988,57.987 15.008,57.777 C13.622,56.637 12.341,55.376 11.17,54.018 C11.235,53.885 11.272,53.746 11.272,53.602 C11.272,52.982 10.631,52.448 9.706,52.196 C8.897,51.104 8.16,49.956 7.497,48.761 C7.812,48.507 7.998,48.199 7.998,47.865 C7.998,47.223 7.312,46.671 6.333,46.432 C5.678,44.976 5.13,43.462 4.701,41.898 C5.341,41.612 5.754,41.17 5.754,40.672 C5.754,40.032 5.073,39.482 4.098,39.241 C3.843,37.839 3.678,36.405 3.617,34.945 C4.548,34.694 5.193,34.158 5.193,33.536 C5.193,32.914 4.55,32.379 3.621,32.128 C3.682,30.82 3.83,29.535 4.047,28.274 C5.024,28.034 5.708,27.483 5.708,26.842 C5.708,26.337 5.282,25.889 4.624,25.603 C5.034,24.052 5.563,22.549 6.195,21.102 C7.222,20.875 7.951,20.31 7.951,19.649 C7.951,19.288 7.732,18.956 7.368,18.692 C7.998,17.535 8.704,16.428 9.47,15.365 C10.496,15.138 11.225,14.573 11.225,13.912 C11.225,13.717 11.159,13.531 11.043,13.358 C12.133,12.078 13.324,10.887 14.605,9.798 C15.829,9.638 16.742,9.019 16.742,8.278 C16.742,8.233 16.737,8.188 16.73,8.144 C18.025,7.221 19.393,6.395 20.824,5.675 C21.142,5.748 21.49,5.789 21.854,5.789 C23.378,5.789 24.613,5.09 24.613,4.228 C24.613,4.178 24.608,4.129 24.6,4.08 C27.147,3.196 29.843,2.634 32.641,2.439 C33.079,2.974 34.033,3.346 35.143,3.346 C36.224,3.346 37.157,2.993 37.609,2.481 C40.599,2.743 43.467,3.426 46.157,4.47 C46.363,5.217 47.501,5.79 48.879,5.79 C48.948,5.79 49.015,5.787 49.083,5.784 C50.541,6.531 51.933,7.387 53.246,8.345 C53.292,8.983 54.014,9.522 55.019,9.738 C56.238,10.769 57.375,11.893 58.424,13.096 C58.165,13.334 58.012,13.613 58.012,13.914 C58.012,14.682 58.993,15.319 60.284,15.45 C61.012,16.468 61.686,17.527 62.291,18.631 C61.872,18.905 61.617,19.261 61.617,19.652 C61.617,20.344 62.413,20.93 63.514,21.135 C64.136,22.562 64.656,24.044 65.062,25.572 C64.358,25.855 63.897,26.319 63.897,26.845 C63.897,27.507 64.626,28.071 65.653,28.298 C65.874,29.588 66.02,30.902 66.078,32.241 C65.34,32.521 64.853,32.998 64.853,33.539 C64.853,34.079 65.341,34.556 66.082,34.836 L66.082,34.836 Z" id="Shape"></path>
                            </g>
                        </g>
                    </g>
                    <g id="Clipped">
                        <mask id="mask-12" sketch:name="XMLID_4_" fill="white">
                            <use xlink:href="#path-11"></use>
                        </mask>
                        <g id="XMLID_4_"></g>
                        <g id="Group" mask="url(#mask-12)" stroke="#FFFFFF" fill="#61BCF9" sketch:type="MSShapeGroup">
                            <g transform="translate(45.000000, 108.000000)" id="Shape">
                                <path d="M14.694,22.579 L3.986,17.594 C3.138,20.416 2.367,23.671 1.736,27.418 L3.017,28.014 L14.694,22.579 L14.694,22.579 Z"></path>
                                <path d="M1.736,27.418 C1.665,27.842 1.594,28.271 1.527,28.708 L3.017,28.014 L1.736,27.418 L1.736,27.418 Z"></path>
                                <path d="M14.694,33.45 L3.017,28.015 L1.527,28.709 C1.067,31.677 0.694,34.941 0.436,38.527 L2.112,39.307 L14.694,33.45 L14.694,33.45 Z"></path>
                                <path d="M25.402,17.595 C21.061,3.147 14.694,0.008 14.694,0.008 C14.694,0.008 8.327,3.147 3.986,17.595 L14.694,22.58 L25.402,17.595 L25.402,17.595 Z"></path>
                                <path d="M26.371,28.014 L27.652,27.418 C27.021,23.671 26.251,20.417 25.403,17.594 L14.695,22.579 L26.371,28.014 L26.371,28.014 Z"></path>
                                <path d="M14.694,45.163 L2.112,39.306 L0.33,40.136 C0.159,42.964 0.058,45.986 0.041,49.213 L3.018,50.599 L14.694,45.163 L14.694,45.163 Z"></path>
                                <path d="M14.694,56.034 L26.371,50.598 L14.694,45.163 L3.017,50.598 L14.694,56.034 Z"></path>
                                <path d="M14.694,45.163 L27.276,39.306 L14.694,33.45 L2.112,39.306 L14.694,45.163 Z"></path>
                                <path d="M3.017,28.014 L14.694,33.45 L26.371,28.014 L14.694,22.579 L3.017,28.014 Z"></path>
                                <path d="M0.436,38.526 C0.398,39.055 0.362,39.592 0.33,40.136 L2.112,39.306 L0.436,38.526 L0.436,38.526 Z"></path>
                                <path d="M14.694,33.45 L27.276,39.307 L28.952,38.527 C28.694,34.941 28.322,31.676 27.861,28.709 L26.371,28.015 L14.694,33.45 L14.694,33.45 Z"></path>
                                <path d="M29.058,40.136 C29.025,39.592 28.99,39.056 28.952,38.526 L27.276,39.306 L29.058,40.136 L29.058,40.136 Z"></path>
                                <path d="M14.694,45.163 L26.371,50.598 L29.348,49.212 C29.331,45.985 29.23,42.964 29.059,40.135 L27.277,39.305 L14.694,45.163 L14.694,45.163 Z"></path>
                                <path d="M26.371,28.014 L27.861,28.708 C27.793,28.271 27.723,27.842 27.652,27.418 L26.371,28.014 L26.371,28.014 Z"></path>
                                <path d="M0.04,49.213 C0.035,50.12 0.036,51.042 0.045,51.982 L3.017,50.599 L0.04,49.213 L0.04,49.213 Z"></path>
                                <path d="M29.343,51.982 C29.352,51.042 29.353,50.12 29.348,49.213 L26.371,50.599 L29.343,51.982 L29.343,51.982 Z"></path>
                                <path d="M0.413,62.681 C0.674,67.196 1.077,72.027 1.646,77.197 L14.694,77.197 L27.742,77.197 C28.311,72.026 28.714,67.196 28.975,62.681 L14.694,56.033 L0.413,62.681 L0.413,62.681 Z"></path>
                                <path d="M3.017,50.598 L0.045,51.981 C0.076,55.333 0.194,58.895 0.413,62.681 L14.694,56.033 L3.017,50.598 L3.017,50.598 Z"></path>
                                <path d="M14.694,56.034 L28.975,62.682 C29.194,58.897 29.312,55.334 29.343,51.982 L26.371,50.599 L14.694,56.034 L14.694,56.034 Z"></path>
                            </g>
                        </g>
                    </g>
                    <g id="Clipped">
                        <mask id="mask-14" sketch:name="XMLID_4_" fill="white">
                            <use xlink:href="#path-13"></use>
                        </mask>
                        <g id="XMLID_4_"></g>
                        <g id="Group" mask="url(#mask-14)">
                            <g transform="translate(78.000000, -36.000000)">
                                <g id="Group" stroke-width="1" fill="none" sketch:type="MSLayerGroup">
                                    <rect id="Rectangle-path" fill="#2D96DD" sketch:type="MSShapeGroup" x="1" y="107" width="32.322" height="124.195"></rect>
                                    <rect id="Rectangle-path" fill="#2D96DD" sketch:type="MSShapeGroup" x="1" y="80" width="2.648" height="27.248"></rect>
                                    <rect id="Rectangle-path" fill="#2D96DD" sketch:type="MSShapeGroup" x="31" y="80" width="2.648" height="27.248"></rect>
                                    <rect id="Rectangle-path" fill="#2D96DD" sketch:type="MSShapeGroup" x="26" y="80" width="2.648" height="27.248"></rect>
                                    <rect id="Rectangle-path" fill="#2D96DD" sketch:type="MSShapeGroup" x="6" y="80" width="2.648" height="27.248"></rect>
                                    <rect id="Rectangle-path" fill="#2D96DD" sketch:type="MSShapeGroup" x="11" y="80" width="2.648" height="27.248"></rect>
                                    <rect id="Rectangle-path" fill="#2D96DD" sketch:type="MSShapeGroup" x="20" y="80" width="2.648" height="27.248"></rect>
                                    <rect id="Rectangle-path" fill="#2D96DD" sketch:type="MSShapeGroup" x="16" y="80" width="2.648" height="27.248"></rect>
                                    <path d="M30.665,47.557 L30.665,43.88 C30.665,43.88 33.496,43.954 33.496,41.049 C33.496,38.144 30.37,39.762 29.929,38.291 C29.488,36.82 26.105,31.157 25.59,29.392 C25.075,27.627 24.046,21.523 24.487,20.714 C24.928,19.905 27.135,19.464 26.399,17.699 C25.664,15.934 20.295,11.301 20.442,8.359 C20.589,5.417 20.663,-0.098 17.059,-0.098 L17.059,-0.392 C13.455,-0.392 13.529,5.124 13.676,8.065 C13.823,11.007 8.454,15.64 7.719,17.405 C6.984,19.17 9.19,19.611 9.631,20.42 C10.072,21.229 9.043,27.333 8.528,29.098 C8.013,30.863 4.63,36.526 4.189,37.997 C3.748,39.468 0.622,37.85 0.622,40.755 C0.622,43.66 3.453,43.586 3.453,43.586 L3.453,44.91 L3.269,44.91 L3.269,47.558 L0.346,47.558 L0.346,81.535 L33.771,81.535 L33.771,47.557 L30.665,47.557 L30.665,47.557 Z M17.06,74.695 C11.455,74.695 6.911,70.151 6.911,64.546 C6.911,58.941 11.455,54.397 17.06,54.397 C22.665,54.397 27.209,58.941 27.209,64.546 C27.209,70.151 22.665,74.695 17.06,74.695 L17.06,74.695 Z" id="Shape" fill="#2D96DD" sketch:type="MSShapeGroup"></path>
                                    <rect id="Rectangle-path" fill="#2D96DD" sketch:type="MSShapeGroup" x="2" y="42" width="30.006" height="6.839"></rect>
                                </g>
                                <path d="M22.006,65.572 L22.003,64.552 L18.314,64.563 C18.155,64.093 17.794,63.732 17.325,63.571 L17.325,56.4 L16.305,56.4 L16.305,63.571 C15.674,63.786 15.213,64.366 15.213,65.07 C15.213,65.955 15.93,66.672 16.815,66.672 C17.517,66.672 18.097,66.213 18.313,65.584 L22.006,65.572 L22.006,65.572 Z" id="Shape" fill="#2D96DD" sketch:type="MSShapeGroup"></path>
                            </g>
                        </g>
                    </g>
                    <g id="Clipped">
                        <mask id="mask-16" sketch:name="XMLID_4_" fill="white">
                            <use xlink:href="#path-15"></use>
                        </mask>
                        <g id="XMLID_4_"></g>
                        <path d="M84.501,164.361 C84.501,164.361 79.21,159.029 78.789,158.327 C78.368,157.625 76.684,156.222 75.982,156.082 C75.28,156.222 73.596,157.626 73.175,158.327 C72.754,159.029 67.463,164.361 67.463,164.361 L67.333,164.361 L67.333,204.581 L84.629,204.581 L84.629,164.361 L84.501,164.361 L84.501,164.361 Z" id="Shape" fill="#2483C6" sketch:type="MSShapeGroup" mask="url(#mask-16)"></path>
                    </g>
                    <g id="Clipped">
                        <mask id="mask-18" sketch:name="XMLID_4_" fill="white">
                            <use xlink:href="#path-17"></use>
                        </mask>
                        <g id="XMLID_4_"></g>
                        <g id="Group" mask="url(#mask-18)" fill="#B0DDFC" sketch:type="MSShapeGroup">
                            <g transform="translate(79.000000, 174.000000)" id="Shape">
                                <path d="M8.129,5.833 C7.764,7.902 7.795,12.558 8.406,14.297 C9.995,14.051 11.86,13.333 12.966,12.227 C11.66,14.185 10.293,14.725 8.765,15.239 C9.209,16.755 10.453,18.589 11.132,19.413 L9.254,19.413 C8.385,18.042 7.287,15.787 7.167,12.172 C5.748,11.992 4.587,10.786 4.258,9.91 C4.872,10.633 5.82,11.454 7.167,11.485 C7.227,10.02 7.389,7.756 8.129,5.833 L8.129,5.833 Z"></path>
                                <path d="M10.538,12.886 C10.21,12.382 9.96,11.847 9.751,11.249 C11.544,10.897 12.707,10.08 13.875,8.431 C14.258,7.891 15.29,7.948 15.853,8.117 C16.961,8.45 17.663,9.311 17.749,10.486 C17.816,11.393 17.48,12.117 16.839,12.75 C17.28,14.446 16.207,16.029 14.425,16.125 C13.924,16.151 12.382,15.885 11.549,14.571 C12.432,13.982 13.233,12.906 13.439,12.056 C13.532,11.672 13.2,11.548 12.979,11.727 C12.365,12.226 11.365,12.678 10.538,12.886 L10.538,12.886 Z"></path>
                                <path d="M4.148,3.617 C4.059,3.564 4.058,3.531 4.074,3.429 C4.331,1.781 6.121,1.107 6.967,1.563 C6.969,1.031 7.639,0.399 8.037,0.107 C8.561,-0.277 9.222,-0.453 9.868,-0.383 C11.827,-0.171 12.597,1.419 12.447,2.694 C13.142,2.784 13.713,3.165 14.099,3.801 C14.86,5.055 14.343,6.795 13.327,8.142 C12.534,9.193 10.86,10.538 8.566,10.255 C8.347,9.05 8.354,6.852 8.54,5.505 C8.586,5.174 8.232,5.072 8.032,5.301 C7.646,5.74 7.255,6.705 7.121,7.669 C6.773,6.066 5.915,4.666 4.148,3.617 L4.148,3.617 Z"></path>
                                <path d="M6.234,12.413 C4.345,15.894 -2.292,12.262 1.183,8.873 C-0.079,7.164 1.264,4.621 3.481,4.817 C4.642,4.92 5.622,5.835 6.168,6.872 C6.76,7.995 6.913,9.221 6.615,10.716 C6.126,10.687 4.901,10.143 4.364,9.589 C4.159,9.378 3.806,9.529 3.87,9.816 C4.114,10.893 5.058,12.083 6.234,12.413 L6.234,12.413 Z"></path>
                            </g>
                        </g>
                    </g>
                    <g id="Clipped">
                        <mask id="mask-20" sketch:name="XMLID_4_" fill="white">
                            <use xlink:href="#path-19"></use>
                        </mask>
                        <g id="XMLID_4_"></g>
                        <rect id="Rectangle-path" fill="#2483C6" sketch:type="MSShapeGroup" mask="url(#mask-20)" x="32" y="157" width="15.968" height="37.953"></rect>
                    </g>
                    <g id="Clipped">
                        <mask id="mask-22" sketch:name="XMLID_4_" fill="white">
                            <use xlink:href="#path-21"></use>
                        </mask>
                        <g id="XMLID_4_"></g>
                        <rect id="Rectangle-path" fill="#2483C6" sketch:type="MSShapeGroup" mask="url(#mask-22)" x="98" y="167" width="16.729" height="35.092"></rect>
                    </g>
                    <g id="Clipped">
                        <mask id="mask-24" sketch:name="XMLID_4_" fill="white">
                            <use xlink:href="#path-23"></use>
                        </mask>
                        <g id="XMLID_4_"></g>
                        <rect id="Rectangle-path" fill="#2483C6" sketch:type="MSShapeGroup" mask="url(#mask-24)" x="124" y="173" width="13.956" height="35.092"></rect>
                    </g>
                    <g id="Clipped">
                        <mask id="mask-26" sketch:name="XMLID_4_" fill="white">
                            <use xlink:href="#path-25"></use>
                        </mask>
                        <g id="XMLID_4_"></g>
                        <rect id="Rectangle-path" fill="#2483C6" sketch:type="MSShapeGroup" mask="url(#mask-26)" x="138" y="151" width="18.938" height="35.092"></rect>
                    </g>
                    <g id="Clipped">
                        <mask id="mask-28" sketch:name="XMLID_4_" fill="white">
                            <use xlink:href="#path-27"></use>
                        </mask>
                        <g id="XMLID_4_"></g>
                        <g id="Group" mask="url(#mask-28)" fill="#B0DDFC" sketch:type="MSShapeGroup">
                            <g transform="translate(135.000000, 156.000000)">
                                <path d="M10.267,21.059 C10.348,22.599 10.239,24.458 9.864,26.677 C10.337,26.779 11.966,26.786 12.537,26.638 C11.972,24.797 12.016,22.831 12.764,21.049 C13.176,20.068 14.247,18.067 15.251,17.209 C14.611,17.056 14.014,16.623 13.479,16.345 C13.043,17.193 12.438,18.179 11.943,18.602 C11.7,17.715 11.337,16.869 10.946,16.1 C10.434,16.472 9.874,16.78 9.275,17.014 C9.849,18.31 10.195,19.693 10.267,21.059 L10.267,21.059 Z" id="Shape"></path>
                                <path d="M22.79,9.801 C22.058,6.783 19.02,4.927 16.001,5.659 C14.982,5.905 14.1,6.42 13.401,7.105 C14.457,9.469 14.21,12.24 12.748,14.386 C14.042,16.2 16.349,17.146 18.647,16.59 C21.666,15.859 23.521,12.82 22.79,9.801 L22.79,9.801 Z" id="Shape"></path>
                                <circle id="Oval" cx="6.592" cy="10.592" r="6.592"></circle>
                                <path d="M13.01,6.345 C14.452,5.004 16.597,4.535 18.286,4.804 C18.302,2.367 16.555,0.208 14.073,-0.209 C11.627,-0.619 9.307,0.806 8.494,3.056 C10.126,3.428 12.071,4.602 13.01,6.345 L13.01,6.345 Z" id="Shape"></path>
                            </g>
                        </g>
                    </g>
                    <g id="Clipped">
                        <mask id="mask-30" sketch:name="XMLID_4_" fill="white">
                            <use xlink:href="#path-29"></use>
                        </mask>
                        <g id="XMLID_4_"></g>
                        <rect id="Rectangle-path" fill="#B2DCF7" sketch:type="MSShapeGroup" mask="url(#mask-30)" x="113" y="160" width="11.379" height="36.799"></rect>
                    </g>
                    <g id="Clipped">
                        <mask id="mask-32" sketch:name="XMLID_4_" fill="white">
                            <use xlink:href="#path-31"></use>
                        </mask>
                        <g id="XMLID_4_"></g>
                        <g id="Group" mask="url(#mask-32)" fill="#B0DDFC" sketch:type="MSShapeGroup">
                            <g transform="translate(39.000000, 164.000000)" id="Shape">
                                <path d="M8.6,5.141 C8.912,6.91 8.885,10.89 8.363,12.377 C7.004,12.166 5.41,11.553 4.465,10.608 C5.581,12.282 6.75,12.743 8.057,13.183 C7.677,14.479 6.614,16.047 6.033,16.751 L7.639,16.751 C8.382,15.579 9.32,13.651 9.423,10.561 C10.636,10.407 11.629,9.376 11.91,8.627 C11.385,9.245 10.574,9.947 9.423,9.973 C9.371,8.721 9.232,6.786 8.6,5.141 L8.6,5.141 Z"></path>
                                <path d="M6.54,11.172 C6.821,10.741 7.034,10.283 7.213,9.773 C5.68,9.472 4.686,8.774 3.688,7.364 C3.361,6.902 2.479,6.951 1.997,7.096 C1.05,7.381 0.45,8.117 0.376,9.121 C0.319,9.897 0.606,10.515 1.154,11.057 C0.777,12.507 1.694,13.861 3.218,13.942 C3.647,13.964 4.965,13.737 5.677,12.613 C4.922,12.109 4.237,11.189 4.061,10.463 C3.981,10.135 4.265,10.029 4.454,10.182 C4.978,10.607 5.834,10.994 6.54,11.172 L6.54,11.172 Z"></path>
                                <path d="M12.003,3.247 C12.079,3.202 12.08,3.173 12.066,3.087 C11.847,1.678 10.316,1.102 9.593,1.492 C9.591,1.037 9.019,0.496 8.678,0.247 C8.23,-0.081 7.665,-0.232 7.113,-0.172 C5.439,0.009 4.78,1.369 4.908,2.458 C4.314,2.535 3.826,2.861 3.496,3.405 C2.846,4.477 3.288,5.965 4.156,7.116 C4.834,8.015 6.265,9.164 8.226,8.923 C8.413,7.893 8.407,6.014 8.248,4.862 C8.209,4.579 8.511,4.492 8.683,4.688 C9.013,5.064 9.348,5.888 9.462,6.712 C9.759,5.341 10.493,4.144 12.003,3.247 L12.003,3.247 Z"></path>
                                <path d="M10.22,10.767 C11.835,13.743 17.509,10.638 14.538,7.741 C15.617,6.28 14.468,4.106 12.574,4.273 C11.582,4.361 10.744,5.143 10.277,6.03 C9.771,6.99 9.64,8.038 9.895,9.316 C10.313,9.291 11.361,8.826 11.819,8.352 C11.994,8.172 12.296,8.3 12.241,8.546 C12.032,9.468 11.226,10.485 10.22,10.767 L10.22,10.767 Z"></path>
                            </g>
                        </g>
                    </g>
                    <g id="XMLID_4_-link" stroke="#2D96DD" stroke-width="2" sketch:type="MSShapeGroup">
                        <circle id="XMLID_4_" cx="94.905" cy="94.905" r="94.905"></circle>
                    </g>
                </g>
                <g id="Group" transform="translate(78.000000, 0.000000)" fill="#2D96DD" sketch:type="MSShapeGroup">
                    <g>
                        <rect id="Rectangle-path" x="1" y="107" width="32.322" height="14.195"></rect>
                        <rect id="Rectangle-path" x="1" y="80" width="2.648" height="27.248"></rect>
                        <rect id="Rectangle-path" x="31" y="80" width="2.648" height="27.248"></rect>
                        <rect id="Rectangle-path" x="26" y="80" width="2.648" height="27.248"></rect>
                        <rect id="Rectangle-path" x="6" y="80" width="2.648" height="27.248"></rect>
                        <rect id="Rectangle-path" x="11" y="80" width="2.648" height="27.248"></rect>
                        <rect id="Rectangle-path" x="20" y="80" width="2.648" height="27.248"></rect>
                        <rect id="Rectangle-path" x="16" y="80" width="2.648" height="27.248"></rect>
                        <path d="M30.665,47.557 L30.665,43.88 C30.665,43.88 33.496,43.954 33.496,41.049 C33.496,38.144 30.37,39.762 29.929,38.291 C29.488,36.82 26.105,31.157 25.59,29.392 C25.075,27.627 24.046,21.523 24.487,20.714 C24.928,19.905 27.135,19.464 26.399,17.699 C25.664,15.934 20.295,11.301 20.442,8.359 C20.589,5.417 20.663,-0.098 17.059,-0.098 L17.059,-0.392 C13.455,-0.392 13.529,5.124 13.676,8.065 C13.823,11.007 8.454,15.64 7.719,17.405 C6.984,19.17 9.19,19.611 9.631,20.42 C10.072,21.229 9.043,27.333 8.528,29.098 C8.013,30.863 4.63,36.526 4.189,37.997 C3.748,39.468 0.622,37.85 0.622,40.755 C0.622,43.66 3.453,43.586 3.453,43.586 L3.453,44.91 L3.269,44.91 L3.269,47.558 L0.346,47.558 L0.346,81.535 L33.771,81.535 L33.771,47.557 L30.665,47.557 L30.665,47.557 Z M17.06,74.695 C11.455,74.695 6.911,70.151 6.911,64.546 C6.911,58.941 11.455,54.397 17.06,54.397 C22.665,54.397 27.209,58.941 27.209,64.546 C27.209,70.151 22.665,74.695 17.06,74.695 L17.06,74.695 Z" id="Shape"></path>
                        <rect id="Rectangle-path" x="2" y="42" width="30.006" height="6.839"></rect>
                    </g>
                    <path d="M22.006,65.572 L22.003,64.552 L18.314,64.563 C18.155,64.093 17.794,63.732 17.325,63.571 L17.325,56.4 L16.305,56.4 L16.305,63.571 C15.674,63.786 15.213,64.366 15.213,65.07 C15.213,65.955 15.93,66.672 16.815,66.672 C17.517,66.672 18.097,66.213 18.313,65.584 L22.006,65.572 L22.006,65.572 Z" id="Shape"></path>
                </g>
                <path d="M157.79,201.801 C157.058,198.783 154.02,196.927 151.001,197.659 C149.982,197.905 149.1,198.42 148.401,199.105 C149.457,201.469 149.21,204.24 147.748,206.386 C149.042,208.2 151.349,209.146 153.647,208.59 C156.666,207.859 158.521,204.82 157.79,201.801 L157.79,201.801 Z" id="Shape" fill="#B0DDFC" sketch:type="MSShapeGroup"></path>
                <path d="M44.079,100.264 C43.235,100.264 42.441,100.461 41.744,100.805 C41.312,99.581 40.348,98.585 39.107,98.048 C39.574,97.342 39.848,96.514 39.848,95.624 C39.848,93.061 37.614,90.983 34.858,90.983 C32.859,90.983 31.139,92.079 30.343,93.658 C28.725,93.8 27.336,94.661 26.54,95.893 C26.019,95.722 25.462,95.624 24.878,95.624 C22.122,95.624 19.888,97.702 19.888,100.265 C19.888,100.294 19.892,100.322 19.893,100.35 C17.588,100.76 15.846,102.642 15.846,104.905 C15.846,107.468 18.08,109.546 20.836,109.546 L44.08,109.546 C46.836,109.546 49.07,107.468 49.07,104.905 C49.069,102.342 46.835,100.264 44.079,100.264 L44.079,100.264 Z" id="Shape" opacity="0.6" fill="#6CB8E7" sketch:type="MSShapeGroup"></path>
                <path d="M159.37,71.934 C158.526,71.934 157.732,72.131 157.035,72.475 C156.603,71.251 155.639,70.255 154.398,69.718 C154.865,69.012 155.139,68.184 155.139,67.294 C155.139,64.731 152.905,62.653 150.149,62.653 C148.15,62.653 146.43,63.749 145.634,65.328 C144.016,65.47 142.627,66.331 141.831,67.563 C141.31,67.392 140.753,67.294 140.169,67.294 C137.413,67.294 135.179,69.372 135.179,71.935 C135.179,71.964 135.183,71.992 135.184,72.02 C132.879,72.43 131.137,74.312 131.137,76.575 C131.137,79.138 133.371,81.216 136.127,81.216 L159.371,81.216 C162.127,81.216 164.361,79.138 164.361,76.575 C164.361,74.012 162.125,71.934 159.37,71.934 L159.37,71.934 Z" id="Shape" opacity="0.6" fill="#6CB8E7" sketch:type="MSShapeGroup"></path>
            </g>
            <g id="Yellow"></g>
            <g id="Blue"></g>
            <g id="Red"></g>
        </g>
    </g>
</svg>